<svg viewBox="0 0 40 40" width="40" height="40" xmlns="http://www.w3.org/2000/svg">
  <!-- Outer geode shell - very dark -->
  <ellipse cx="20" cy="20" rx="18" ry="17" fill="#1a1a1a" stroke="#000000" stroke-width="2"/>
  
  <!-- Inner cavity -->
  <ellipse cx="20" cy="20" rx="13" ry="12" fill="#0f172a"/>
  
  <!-- Large central crystal -->
  <polygon points="20,8 28,16 24,28 16,28 12,16" fill="#1d4ed8" stroke="#1e40af" stroke-width="1"/>
  
  <!-- Side crystals -->
  <polygon points="10,18 16,14 18,22 12,26" fill="#3b82f6" stroke="#2563eb" stroke-width="0.8"/>
  <polygon points="30,18 24,14 22,22 28,26" fill="#3b82f6" stroke="#2563eb" stroke-width="0.8"/>
  
  <!-- Small accent crystals -->
  <polygon points="14,12 18,10 16,16" fill="#60a5fa"/>
  <polygon points="26,12 22,10 24,16" fill="#60a5fa"/>
  <polygon points="16,30 20,28 18,32" fill="#60a5fa"/>
  
  <!-- Cartoon highlights -->
  <ellipse cx="17" cy="16" rx="2" ry="1.6" fill="#dbeafe" opacity="0.8"/>
  <ellipse cx="23" cy="18" rx="1.6" ry="1.2" fill="#dbeafe" opacity="0.8"/>
  <circle cx="18" cy="24" r="1" fill="#ffffff" opacity="0.9"/>
  
  <!-- Sparkle effects -->
  <g fill="#ffffff" opacity="0.7">
    <polygon points="12,14 13,15 12,16 11,15" transform="scale(1.6)"/>
    <polygon points="28,22 29,23 28,24 27,23" transform="scale(1.6)"/>
  </g>
</svg>